<svg xmlns="http://www.w3.org/2000/svg" viewBox="0 0 24 24" fill="none" stroke="currentColor" stroke-width="2" stroke-linecap="round" stroke-linejoin="round">
  <ellipse cx="12" cy="5" rx="3" ry="3" fill="currentColor"/>
  <path d="M12 8c-3.5 0-6 2.5-6 5.5V18c0 1.5 1 2 2 2h8c1 0 2-0.5 2-2v-4.5C18 10.5 15.5 8 12 8z" fill="currentColor"/>
  <circle cx="9" cy="12" r="0.5" fill="white"/>
  <circle cx="15" cy="12" r="0.5" fill="white"/>
  <path d="M12 14c-0.5 0-1 0.5-1 1" stroke="white" fill="none"/>
  <path d="M8 18c-1 2-2 3-3 3M16 18c1 2 2 3 3 3" stroke="currentColor" fill="none"/>
</svg>

